<svg width="120" height="38" viewBox="0 0 120 38" fill="none" xmlns="http://www.w3.org/2000/svg">
<path d="M11.7176 32.6894C9.37767 32.6894 7.32348 32.2104 5.55904 31.2524C3.7926 30.2945 2.42581 28.959 1.45667 27.248C0.487524 25.537 0.00195312 23.5602 0.00195312 21.3174C0.00195312 19.0747 0.487524 17.0816 1.45667 15.4173C2.42581 13.753 3.7946 12.4602 5.55904 11.5347C7.32548 10.6112 9.37767 10.1484 11.7176 10.1484C13.4701 10.1484 15.0207 10.4103 16.3715 10.9339C17.7223 11.4575 18.8533 12.1456 19.7625 13.0021C20.6717 13.8586 21.3611 14.7963 21.8287 15.8151C22.2963 16.834 22.5301 17.8468 22.5301 18.8515V19.0138H16.3715C16.3715 18.9326 16.3675 18.8535 16.3615 18.7804C16.3555 18.7053 16.3375 18.6282 16.3115 18.547C16.2036 17.9767 15.9698 17.4388 15.6102 16.9375C15.2485 16.4342 14.7449 16.0242 14.0955 15.7055C13.4461 15.3869 12.6408 15.2266 11.6776 15.2266C10.6465 15.2266 9.72736 15.4579 8.91808 15.9187C8.10879 16.3814 7.46936 17.0634 7.00177 17.9665C6.53418 18.8697 6.30039 19.988 6.30039 21.3195C6.30039 22.6509 6.53418 23.7489 7.00177 24.6927C7.46936 25.6365 8.10879 26.3611 8.91808 26.8624C9.72736 27.3657 10.6465 27.6154 11.6776 27.6154C12.7087 27.6154 13.5959 27.4489 14.2654 27.1161C14.9348 26.7832 15.4363 26.3347 15.77 25.7704C16.1037 25.2062 16.3055 24.5851 16.3715 23.9052H22.5301C22.5301 24.9099 22.3003 25.9328 21.8387 26.972C21.3771 28.0111 20.6957 28.959 19.7925 29.8155C18.8893 30.672 17.7623 31.3641 16.4115 31.8938C15.0606 32.4235 13.496 32.6894 11.7176 32.6894Z" fill="white"/>
<path d="M36.1821 32.6644C33.8821 32.6644 31.8559 32.1814 30.1034 31.2173C28.351 30.2533 26.9842 28.9239 26.0011 27.2332C25.0179 25.5425 24.5264 23.59 24.5264 21.3737C24.5264 19.1573 25.0179 17.2271 26.0011 15.5344C26.9842 13.8438 28.351 12.5245 30.1034 11.5807C31.8559 10.637 33.8821 10.1641 36.1821 10.1641C38.482 10.1641 40.5083 10.637 42.2607 11.5807C44.0132 12.5245 45.3799 13.8417 46.3631 15.5344C47.3462 17.2251 47.8378 19.1715 47.8378 21.3737C47.8378 23.5758 47.3462 25.5405 46.3631 27.2332C45.3799 28.9239 44.0132 30.2533 42.2607 31.2173C40.5083 32.1814 38.482 32.6644 36.1821 32.6644Z" fill="white"/>
<path d="M69.1205 22.426C69.1205 24.3683 68.7089 26.124 67.8876 27.6929C67.0644 29.2618 65.9553 30.512 64.5566 31.4416C63.1578 32.3711 61.5972 32.838 59.8727 32.838C58.1482 32.838 56.4557 32.4056 54.957 31.5431C53.4584 30.6805 52.2554 29.3998 51.3462 27.701C50.437 26.0022 49.9814 23.9097 49.9814 21.4254C49.9814 18.9411 50.447 17.0313 51.3762 15.3731C52.3054 13.7149 53.5223 12.4565 55.027 11.5939C56.5317 10.7313 58.1462 10.299 59.8727 10.299C61.5992 10.299 63.0999 10.7334 64.4966 11.6041C65.8934 12.4727 67.0144 13.658 67.8577 15.16C68.7009 16.6619 69.1225 18.3891 69.1225 20.3456V20.7333M66.4349 32.3488V0.5H72.6754V32.3508H66.4349V32.3488Z" fill="white"/>
<path d="M94.7625 13.7693C93.7934 12.6144 92.5125 11.7477 90.9199 11.1713C89.3273 10.5949 87.5969 10.3047 85.7245 10.3047C83.7183 10.3047 81.9199 10.6132 80.3273 11.2322C78.7347 11.8513 77.4738 12.7565 76.5446 13.9519C75.6154 15.1474 75.1499 16.6148 75.1499 18.3542H81.2685C81.2685 17.2805 81.6461 16.4829 82.4015 15.9592C83.1568 15.4356 84.2498 15.1737 85.6826 15.1737C87.0334 15.1737 88.0864 15.4051 88.8418 15.8659C89.5971 16.3286 89.9748 16.9598 89.9748 17.7615V17.8021C89.9748 18.277 89.5292 18.6099 88.6399 18.8007C87.7507 18.9915 86.1362 19.2005 83.7942 19.4319C82.1896 19.5943 80.701 19.9312 79.3302 20.4406C77.9594 20.9501 76.8584 21.6868 76.0291 22.6509C75.1998 23.6149 74.7842 24.8652 74.7842 26.3996C74.7842 27.7574 75.1259 28.9123 75.8073 29.8642C76.4887 30.816 77.4358 31.5426 78.6468 32.044C79.8577 32.5473 81.2385 32.797 82.7891 32.797C84.1139 32.797 85.3468 32.6244 86.4898 32.2774C87.6328 31.9303 88.624 31.4351 89.4592 30.7897C89.8049 30.5217 90.1106 30.2315 90.3764 29.921V32.5006H96.2692V18.1553C96.2692 16.3753 95.7237 14.92 94.7545 13.7652L94.7625 13.7693ZM90.0787 22.797C90.0787 24.0473 89.8109 25.058 89.2754 25.8333C88.7399 26.6086 88.0485 27.1749 87.1992 27.5341C86.35 27.8934 85.4368 28.074 84.4616 28.074C83.3246 28.074 82.4694 27.8873 81.8939 27.5138C81.3184 27.1404 81.0307 26.5802 81.0307 25.8333C81.0307 25.0458 81.3684 24.4857 82.0438 24.1528C82.7192 23.8199 83.7383 23.5865 85.1031 23.4505C86.2541 23.3288 87.407 23.1623 88.564 22.9513C89.0975 22.8538 89.6031 22.7442 90.0787 22.6225V22.799V22.797Z" fill="white"/>
<path d="M98.5967 37.4967V33.4375H120V37.4967H98.5967Z" fill="#DDF849"/>
</svg>
